<svg xmlns="http://www.w3.org/2000/svg" width="32" height="32" viewBox="0 0 32 32" fill="none">
  <rect width="32" height="32" rx="8" fill="url(#grad)"/>
  <path d="M16 8C12.13 8 9 11.13 9 15c0 2.39 1.19 4.49 3 5.74V22a1 1 0 001 1h6a1 1 0 001-1v-1.26c1.81-1.25 3-3.35 3-5.74 0-3.87-3.13-7-7-7z" fill="white" opacity="0.9"/>
  <path d="M13 24h6v1a1 1 0 01-1 1h-4a1 1 0 01-1-1v-1z" fill="white" opacity="0.7"/>
  <defs>
    <linearGradient id="grad" x1="0" y1="0" x2="32" y2="32">
      <stop offset="0%" stop-color="#6366f1"/>
      <stop offset="100%" stop-color="#8b5cf6"/>
    </linearGradient>
  </defs>
</svg>
